<?xml version="1.0" standalone="no"?>
<!DOCTYPE svg PUBLIC "-//W3C//DTD SVG 20010904//EN"
 "http://www.w3.org/TR/2001/REC-SVG-20010904/DTD/svg10.dtd">
<svg version="1.0" xmlns="http://www.w3.org/2000/svg"
 width="500.000000pt" height="500.000000pt" viewBox="0 0 500.000000 500.000000"
 preserveAspectRatio="xMidYMid meet">
<metadata>
Created by potrace 1.14, written by Peter Selinger 2001-2017
</metadata>
<g transform="translate(0.000000,500.000000) scale(0.100000,-0.100000)"
fill="#000000" stroke="none">
<path d="M1970 4669 c-122 -22 -114 -17 -426 -239 -35 -25 -90 -63 -121 -85
-32 -22 -63 -44 -69 -50 -6 -5 -51 -37 -98 -70 -288 -199 -536 -381 -569 -417
-80 -87 -125 -217 -121 -344 2 -43 5 -86 7 -94 2 -8 7 -28 12 -45 16 -63 90
-187 147 -250 33 -36 64 -65 70 -65 5 0 16 -7 24 -15 8 -8 33 -19 54 -25 22
-6 40 -13 40 -15 0 -2 -75 -58 -167 -124 -93 -65 -185 -136 -205 -157 -53 -56
-114 -177 -134 -265 -13 -59 -11 -207 5 -269 47 -189 197 -388 333 -441 20 -8
37 -18 39 -24 1 -5 -84 -71 -189 -147 -239 -170 -272 -203 -332 -326 -61 -126
-84 -268 -67 -402 26 -208 169 -446 331 -554 59 -39 175 -81 251 -91 91 -12
2571 -22 2621 -11 33 7 96 41 129 70 17 15 59 46 95 70 52 36 557 394 685 486
17 12 154 109 305 216 151 107 285 207 297 222 33 42 31 164 -3 193 -9 7 -55
13 -117 15 -56 1 -108 3 -116 3 -7 1 -11 7 -7 16 3 8 2 15 -3 15 -5 0 -8 19
-8 43 1 37 -9 137 -19 207 -2 14 -6 50 -9 82 -2 31 -7 73 -10 95 -6 38 -8 58
-20 187 -3 38 -6 72 -7 75 -2 21 8 33 53 62 28 18 56 37 62 43 7 6 31 24 54
40 23 15 45 37 48 47 11 33 3 123 -14 152 -24 43 -37 45 -243 46 l-148 1 20
20 c21 21 24 37 21 105 -3 67 -22 77 -140 77 -97 -1 -101 0 -107 22 -3 12 -4
26 -3 32 3 9 -8 116 -17 179 -3 17 -7 55 -9 85 -3 30 -8 71 -11 90 -3 19 -7
64 -10 99 -2 35 -6 76 -9 91 -4 24 2 32 48 62 28 19 76 54 105 77 46 37 52 46
52 79 0 65 -18 112 -48 123 -15 6 -88 12 -162 14 -155 3 -150 2 -131 14 21 13
26 120 8 144 -12 14 -31 18 -106 18 -56 0 -93 5 -98 12 -3 6 -8 34 -9 61 -1
28 -5 71 -8 96 -4 25 -9 68 -11 95 -3 28 -7 66 -10 85 -2 19 -7 64 -11 100 -3
36 -8 68 -10 71 -2 4 13 18 34 32 161 112 167 120 151 196 -15 71 63 66 -982
67 -518 1 -962 -2 -987 -7z"/>
</g>
</svg>
